<mxfile host="65bd71144e" modified="2021-02-01T21:02:14.268Z" agent="5.0 (Windows NT 10.0; Win64; x64) AppleWebKit/537.36 (KHTML, like Gecko) Code/1.51.0 Chrome/83.0.4103.122 Electron/9.3.3 Safari/537.36" etag="-9F1Iv6w3pn6qnHRxldx" version="13.10.0" type="embed">
    <diagram id="M6VVdp_PShIjpn4tF2mF" name="Page-1">
        <mxGraphModel dx="1147" dy="667" grid="1" gridSize="10" guides="1" tooltips="1" connect="1" arrows="1" fold="1" page="1" pageScale="1" pageWidth="850" pageHeight="1100" math="0" shadow="0">
            <root>
                <mxCell id="0"/>
                <mxCell id="1" parent="0"/>
                <mxCell id="2" value="Config Tables&lt;br&gt;Master Data&lt;br&gt;Transaction Data&lt;br&gt;&lt;br&gt;+&lt;br&gt;&lt;br&gt;Stored Procedures" style="shape=cylinder3;whiteSpace=wrap;html=1;boundedLbl=1;backgroundOutline=1;size=15;" parent="1" vertex="1">
                    <mxGeometry x="140" y="200" width="190" height="200" as="geometry"/>
                </mxCell>
                <mxCell id="4" value="Audit Data&lt;br&gt;Log Archives" style="shape=cylinder3;whiteSpace=wrap;html=1;boundedLbl=1;backgroundOutline=1;size=15;" parent="1" vertex="1">
                    <mxGeometry x="390" y="200" width="190" height="200" as="geometry"/>
                </mxCell>
                <mxCell id="5" value="qrddb_rch00_prod" style="text;html=1;strokeColor=none;fillColor=none;align=center;verticalAlign=middle;whiteSpace=wrap;rounded=0;labelBackgroundColor=#171717;" parent="1" vertex="1">
                    <mxGeometry x="220" y="420" width="40" height="20" as="geometry"/>
                </mxCell>
                <mxCell id="6" value="qrddb_rch01_prod" style="text;html=1;strokeColor=none;fillColor=none;align=center;verticalAlign=middle;whiteSpace=wrap;rounded=0;labelBackgroundColor=#171717;" parent="1" vertex="1">
                    <mxGeometry x="455" y="410" width="40" height="20" as="geometry"/>
                </mxCell>
                <mxCell id="8" value="Config Tables&lt;br&gt;Master Data&lt;br&gt;Transaction Data&lt;br&gt;&lt;br&gt;+&lt;br&gt;Event Queues&lt;br&gt;Job Queues&lt;br&gt;+&lt;br&gt;&lt;br&gt;Stored Procedures" style="shape=cylinder3;whiteSpace=wrap;html=1;boundedLbl=1;backgroundOutline=1;size=15;" parent="1" vertex="1">
                    <mxGeometry x="145" y="510" width="190" height="200" as="geometry"/>
                </mxCell>
                <mxCell id="9" value="Audit Data&lt;br&gt;Queue Processing Logs&lt;br&gt;Log Archives" style="shape=cylinder3;whiteSpace=wrap;html=1;boundedLbl=1;backgroundOutline=1;size=15;" parent="1" vertex="1">
                    <mxGeometry x="385" y="510" width="190" height="200" as="geometry"/>
                </mxCell>
                <mxCell id="10" value="Config Tables&lt;br&gt;Master Data&lt;br&gt;Transaction Data&lt;br&gt;+&lt;br&gt;Stored Procedures&lt;br&gt;+&lt;br&gt;Event Queues&lt;br&gt;Job Queues&lt;br&gt;Queue Processing Logs" style="shape=cylinder3;whiteSpace=wrap;html=1;boundedLbl=1;backgroundOutline=1;size=15;" parent="1" vertex="1">
                    <mxGeometry x="650" y="510" width="190" height="200" as="geometry"/>
                </mxCell>
                <mxCell id="11" value="cigdb_rch00_prod" style="text;html=1;strokeColor=none;fillColor=none;align=center;verticalAlign=middle;whiteSpace=wrap;rounded=0;labelBackgroundColor=#171717;" parent="1" vertex="1">
                    <mxGeometry x="225" y="730" width="40" height="20" as="geometry"/>
                </mxCell>
                <mxCell id="13" value="cigdb_rch02_prod" style="text;html=1;strokeColor=none;fillColor=none;align=center;verticalAlign=middle;whiteSpace=wrap;rounded=0;labelBackgroundColor=#E6E6E6;fontColor=#171717;" parent="1" vertex="1">
                    <mxGeometry x="637.5" y="720" width="215" height="20" as="geometry"/>
                </mxCell>
                <mxCell id="16" value="cigdb_rch01_prod" style="text;html=1;strokeColor=none;fillColor=none;align=center;verticalAlign=middle;whiteSpace=wrap;rounded=0;labelBackgroundColor=#171717;" parent="1" vertex="1">
                    <mxGeometry x="460" y="720" width="40" height="20" as="geometry"/>
                </mxCell>
                <mxCell id="22" value="replicate for 2nd copy" style="text;html=1;strokeColor=none;fillColor=none;align=center;verticalAlign=middle;whiteSpace=wrap;rounded=0;labelBackgroundColor=#171717;" parent="1" vertex="1">
                    <mxGeometry x="166.25" y="160" width="137.5" height="20" as="geometry"/>
                </mxCell>
                <mxCell id="23" value="replicate for 2nd copy" style="text;html=1;strokeColor=none;fillColor=none;align=center;verticalAlign=middle;whiteSpace=wrap;rounded=0;labelBackgroundColor=#E6E6E6;fontColor=#171717;" parent="1" vertex="1">
                    <mxGeometry x="166.25" y="160" width="137.5" height="20" as="geometry"/>
                </mxCell>
                <mxCell id="25" value="keep 1 year data&lt;br&gt;(permanent for Access Logs)" style="text;html=1;strokeColor=none;fillColor=none;align=center;verticalAlign=middle;whiteSpace=wrap;rounded=0;labelBackgroundColor=#E6E6E6;fontColor=#171717;" parent="1" vertex="1">
                    <mxGeometry x="400" y="160" width="180" height="20" as="geometry"/>
                </mxCell>
                <mxCell id="26" value="qrddb_rch00_prod" style="text;html=1;strokeColor=none;fillColor=none;align=center;verticalAlign=middle;whiteSpace=wrap;rounded=0;labelBackgroundColor=#E6E6E6;fontColor=#171717;" parent="1" vertex="1">
                    <mxGeometry x="220" y="420" width="40" height="20" as="geometry"/>
                </mxCell>
                <mxCell id="27" value="qrddb_rch01_prod" style="text;html=1;strokeColor=none;fillColor=none;align=center;verticalAlign=middle;whiteSpace=wrap;rounded=0;labelBackgroundColor=#E6E6E6;fontColor=#171717;" parent="1" vertex="1">
                    <mxGeometry x="455" y="410" width="40" height="20" as="geometry"/>
                </mxCell>
                <mxCell id="29" value="cigdb_rch00_prod" style="text;html=1;strokeColor=none;fillColor=none;align=center;verticalAlign=middle;whiteSpace=wrap;rounded=0;labelBackgroundColor=#E6E6E6;fontColor=#171717;" parent="1" vertex="1">
                    <mxGeometry x="225" y="730" width="40" height="20" as="geometry"/>
                </mxCell>
                <mxCell id="30" value="cigdb_rch01_prod" style="text;html=1;strokeColor=none;fillColor=none;align=center;verticalAlign=middle;whiteSpace=wrap;rounded=0;labelBackgroundColor=#E6E6E6;fontColor=#171717;" parent="1" vertex="1">
                    <mxGeometry x="460" y="720" width="40" height="20" as="geometry"/>
                </mxCell>
                <mxCell id="31" value="staging-queue (2nd queue)" style="text;html=1;strokeColor=none;fillColor=none;align=center;verticalAlign=middle;whiteSpace=wrap;rounded=0;labelBackgroundColor=#E6E6E6;fontColor=#171717;" vertex="1" parent="1">
                    <mxGeometry x="660" y="480" width="180" height="20" as="geometry"/>
                </mxCell>
                <mxCell id="32" value="primary-queue" style="text;html=1;strokeColor=none;fillColor=none;align=center;verticalAlign=middle;whiteSpace=wrap;rounded=0;labelBackgroundColor=#E6E6E6;fontColor=#171717;" vertex="1" parent="1">
                    <mxGeometry x="150" y="480" width="180" height="20" as="geometry"/>
                </mxCell>
                <mxCell id="33" value="log-dataabase" style="text;html=1;strokeColor=none;fillColor=none;align=center;verticalAlign=middle;whiteSpace=wrap;rounded=0;labelBackgroundColor=#E6E6E6;fontColor=#171717;" vertex="1" parent="1">
                    <mxGeometry x="380" y="480" width="180" height="20" as="geometry"/>
                </mxCell>
            </root>
        </mxGraphModel>
    </diagram>
</mxfile>
